<svg width="1200" height="900" viewBox="0 0 1200 900" fill="none" xmlns="http://www.w3.org/2000/svg">
  <rect width="1200" height="900" rx="40" fill="#091A2E"/>
  <rect x="56" y="56" width="1088" height="788" rx="32" fill="url(#paint0_linear)"/>
  <rect x="104" y="124" width="992" height="652" rx="28" fill="#F5F7FB" fill-opacity="0.08" stroke="#AFC6FF" stroke-opacity="0.24" stroke-width="2"/>
  <rect x="156" y="184" width="352" height="428" rx="24" fill="#0E2743"/>
  <rect x="196" y="232" width="272" height="18" rx="9" fill="#DCE7FF" fill-opacity="0.9"/>
  <rect x="196" y="274" width="224" height="18" rx="9" fill="#DCE7FF" fill-opacity="0.45"/>
  <rect x="196" y="340" width="272" height="112" rx="20" fill="#153A63"/>
  <rect x="196" y="476" width="128" height="68" rx="18" fill="#2B69B3"/>
  <rect x="340" y="476" width="128" height="68" rx="18" fill="#D7E4FF" fill-opacity="0.12" stroke="#D7E4FF" stroke-opacity="0.25"/>
  <rect x="564" y="184" width="480" height="266" rx="24" fill="#0F2237"/>
  <rect x="604" y="228" width="180" height="18" rx="9" fill="#DCE7FF" fill-opacity="0.9"/>
  <rect x="604" y="268" width="344" height="16" rx="8" fill="#DCE7FF" fill-opacity="0.38"/>
  <rect x="604" y="300" width="320" height="16" rx="8" fill="#DCE7FF" fill-opacity="0.38"/>
  <rect x="604" y="356" width="400" height="54" rx="18" fill="#173D66"/>
  <rect x="564" y="482" width="228" height="202" rx="24" fill="#102B49"/>
  <rect x="816" y="482" width="228" height="202" rx="24" fill="#102B49"/>
  <circle cx="211" cy="725" r="10" fill="#8DB7FF"/>
  <circle cx="240" cy="725" r="10" fill="#3E76C8"/>
  <circle cx="269" cy="725" r="10" fill="#DCE7FF"/>
  <text x="156" y="742" fill="#FFFFFF" font-family="Arial, sans-serif" font-size="64" font-weight="700">
    Builders Liability AMMC
  </text>
  <text x="156" y="794" fill="#D2DDF5" font-family="Arial, sans-serif" font-size="28">
    Digital claims, policy administration, and survey workflows for Abuja's builders ecosystem
  </text>
  <defs>
    <linearGradient id="paint0_linear" x1="94" y1="82" x2="1088" y2="822" gradientUnits="userSpaceOnUse">
      <stop stop-color="#12345A"/>
      <stop offset="1" stop-color="#0A1525"/>
    </linearGradient>
  </defs>
</svg>
